<svg width="32" height="32" viewBox="0 0 32 32" fill="none" xmlns="http://www.w3.org/2000/svg">
<g id="favicon">
<rect width="32" height="32" rx="8" fill="#F8F8F8"/>
<path fill-rule="evenodd" clip-rule="evenodd" d="M27 16C27 18.0754 26.5885 20.0373 25.8566 21.7778H16.6875C18.3806 19.0537 20.125 15.7549 20.125 12.3889C20.125 8.05726 17.3327 4.41076 13.5358 3.32745C14.328 3.11318 15.1528 3 16 3C22.0751 3 27 8.8203 27 16ZM17.375 12.3889C17.375 8.79904 14.6048 5.88889 11.1875 5.88889C6.61518 5.88889 5 12.0329 5 16C5 23.1797 9.92486 29 16 29C19.2578 29 22.1849 27.3262 24.199 24.6667H11.1875C11.4294 24.3427 11.6827 24.0088 11.9429 23.6658C14.3608 20.4786 17.375 16.5054 17.375 12.3889Z" fill="#7859CF"/>
</g>
</svg>
